# AST/ASF file generated using VICON BodyLanguage
# -----------------------------------------------
:version 1.10
:name VICON
:units
  mass 1.0
  length 0.45
  angle deg
:documentation
   .ast/.asf automatically generated from VICON data using
   VICON BodyBuilder and BodyLanguage model FoxedUp or BRILLIANT.MOD
:root
   order TX TY TZ RX RY RZ
   axis XYZ
   position 0 0 0  
   orientation 0 0 0 
:bonedata
  begin
     id 1 
     name lhipjoint
     direction 0.661853 -0.702389 0.261917 
     length 2.64193 
     axis 0 0 0  XYZ
  end
  begin
     id 2 
     name lfemur
     direction 0.34202 -0.939693 0  
     length 7.01722  
     axis 0 0 20  XYZ
    dof rx ry rz
    limits (-160.0 20.0)
           (-70.0 70.0)
           (-60.0 70.0)
  end
  begin
     id 3 
     name ltibia
     direction 0.34202 -0.939693 0   
     length 8.25008   
     axis 0 0 20   XYZ
    dof rx
    limits (-10.0 170.0)
  end
  begin
     id 4 
     name lfoot
     direction 0.0709916 -0.195048 0.978221   
     length 2.31941   
     axis -90 7.62852e-016 20   XYZ
    dof rx rz
    limits (-45.0 90.0)
           (-70.0 20.0)
  end
  begin
     id 5 
     name ltoes
     direction 1.53586e-011 -4.22017e-011 1   
     length 1.16486   
     axis -90 7.62852e-016 20   XYZ
    dof rx
    limits (-90.0 20.0)
  end
  begin
     id 6 
     name rhipjoint
     direction -0.638185 -0.721362 0.268992   
     length 2.57244  
     axis 0 0 0  XYZ 
  end
  begin
     id 7 
     name rfemur
     direction -0.34202 -0.939693 0   
     length 7.07017   
     axis 0 0 -20   XYZ
    dof rx ry rz
    limits (-160.0 20.0)
           (-70.0 70.0)
           (-70.0 60.0)
  end
  begin
     id 8 
     name rtibia
     direction -0.34202 -0.939693 0   
     length 8.20386   
     axis 0 0 -20   XYZ
    dof rx
    limits (-10.0 170.0)
 end
 begin
     id 9 
     name rfoot
     direction -0.0822429 -0.225961 0.970658   
     length 2.32215  
     axis -90 -7.62852e-016 -20   XYZ
    dof rx rz
    limits (-45.0 90.0)
           (-20.0 70.0)
  end
  begin
     id 10 
     name rtoes
     direction -1.53597e-011 -4.21689e-011 1   
     length 1.16333   
     axis -90 -7.62852e-016 -20   XYZ
    dof rx
    limits (-90.0 20.0)
  end
  begin
     id 11 
     name lowerback
     direction -0.0131557 0.998589 -0.0514484   
     length 2.14993   
     axis 0 0 0   XYZ
    dof rx ry rz
    limits (-20.0 45.0)
           (-30.0 30.0)
           (-30.0 30.0)
  end
  begin
     id 12 
     name upperback
     direction -0.000776481 0.999993 0.00352685   
     length 2.15301   
     axis 0 0 0   XYZ
    dof rx ry rz
    limits (-20.0 45.0)
           (-30.0 30.0)
           (-30.0 30.0)
  end
  begin
     id 13 
     name thorax
     direction 0.00438186 0.999609 0.0276143   
     length 2.15424   
     axis 0 0 0   XYZ
    dof rx ry rz
    limits (-20.0 45.0)
           (-30.0 30.0)
           (-30.0 30.0)
  end
  begin
     id 14 
     name lowerneck
     direction -0.0488006 0.998094 0.0377807   
     length 1.90481   
     axis 0 0 0   XYZ
    dof rx ry rz
    limits (-20.0 45.0)
           (-30.0 30.0)
           (-30.0 30.0)
  end
  begin
     id 15 
     name upperneck
     direction 0.0443769 0.990702 -0.12861   
     length 1.91305   
     axis 0 0 0   XYZ
    dof rx ry rz
    limits (-20.0 45.0)
           (-30.0 30.0)
           (-30.0 30.0)
  end
  begin
     id 16
     name head
     direction 0.0165599 0.998647 -0.0492982  
     length 1.92369  
     axis 0 0 0   XYZ
    dof rx ry rz
    limits (-20.0 45.0)
           (-30.0 30.0)
           (-30.0 30.0)
  end
  begin
     id 17 
     name lclavicle
     direction 0.911936 0.410197 -0.0105506  
     length 3.52622  
     axis 0 0 0   XYZ
    dof ry rz
    limits (-20.0 10.0)
           (0.0 20.0)
  end
  begin
     id 18 
     name lhumerus
     direction 1 -4.48974e-011 -2.48591e-028   
     length 5.47651   
     axis 180 -30 -90   XYZ
    dof rx ry rz
    limits (-60.0 90.0)
           (-90.0 90.0)
           (-90.0 90.0)
  end
  begin
     id 19
     name lradius
     direction 1 -4.48938e-011 -4.40099e-027   
     length 3.09058   
     axis 180 -30 -90   XYZ
    dof rx
    limits (-10.0 170.0)
  end
  begin
     id 20
     name lwrist
     direction 1 -4.49042e-011 -2.99852e-027   
     length 1.54529   
     axis 1.95339e-015 90 90   XYZ
    dof ry
    limits (-180.0 0.0)
 end
  begin
     id 21 
     name lhand
     direction 1 -4.48815e-011 -5.98193e-027   
     length 0.771611   
     axis 3.82337e-015 90 90   XYZ
    dof rx rz
    limits (-90.0 90.0)
           (-45.0 45.0)
  end
  begin
     id 22 
     name lfingers
     direction 1 -4.49034e-011 -1.1993e-026   
     length 0.622093   
     axis 7.64668e-015 90 90   XYZ
    dof rx
    limits (0.0 90.0)
  end
  begin
     id 23
     name lthumb
     direction 0.707107 -6.34867e-011 0.707107   
     length 0.893204   
     axis -90 45 -1.62303e-014   XYZ
    dof rx rz
    limits (-45.0 45.0)
           (-45.0 45.0)
  end
  begin
     id 24 
     name rclavicle
     direction -0.93442 0.355634 -0.0195692   
     length 3.62463  
     axis 0 0 0   XYZ 
    dof ry rz
    limits (-10.0 20.0)
           (-20.0 0.0)
  end
  begin
     id 25 
     name rhumerus
     direction -1 -4.48957e-011 -1.19147e-027  
     length 5.14182   
     axis 180 30 90   XYZ
    dof rx ry rz
    limits (-90.0 60.0)
           (-90.0 90.0)
           (-90.0 90.0)
  end
  begin
     id 26 
     name rradius
     direction -1 -4.48952e-011 -3.81062e-027   
     length 3.35565   
     axis 180 30 90   XYZ
    dof rx
    limits (-10.0 170.0)
  end
  begin
     id 27 
     name rwrist
     direction -1 -4.48973e-011 -2.99621e-027   
     length 1.67782   
     axis 1.95339e-015 -90 -90   XYZ
    dof ry
    limits (-180.0 0.0)
  end
  begin
     id 28
     name rhand
     direction -1 -4.48895e-011 -5.98727e-027   
     length 0.801042   
     axis 3.82337e-015 -90 -90   XYZ
    dof rx rz
    limits (-90.0 90.0)
           (-45.0 45.0)
  end
  begin
     id 29
     name rfingers
     direction -1 -4.49065e-011 -1.19972e-026   
     length 0.645821   
     axis 7.64668e-015 -90 -90   XYZ
    dof rx
    limits (0.0 90.0)
  end
  begin
     id 30
     name rthumb
     direction -0.707107 -6.34957e-011 0.707107   
     length 0.927273   
     axis -90 -45 1.62303e-014   XYZ
    dof rx rz
    limits (-45.0 45.0)
           (-45.0 45.0)
  end
:hierarchy
  begin
    root lhipjoint rhipjoint lowerback
    lhipjoint lfemur
    lfemur ltibia
    ltibia lfoot
    lfoot ltoes
    rhipjoint rfemur
    rfemur rtibia
    rtibia rfoot
    rfoot rtoes
    lowerback upperback
    upperback thorax
    thorax lowerneck lclavicle rclavicle
    lowerneck upperneck
    upperneck head
    lclavicle lhumerus
    lhumerus lradius
    lradius lwrist
    lwrist lhand lthumb
    lhand lfingers
    rclavicle rhumerus
    rhumerus rradius
    rradius rwrist
    rwrist rhand rthumb
    rhand rfingers
  end

#!OML:ASF E:\Style4\Style4.ASF
:FULLY-SPECIFIED
:DEGREES
240
root -0.316531 17.8715 -2.17243 -1.85343 -2.99555 1.68963
lowerback 5.89796 4.83034 -4.28319
upperback 4.00654 6.22457 -2.06989
thorax 0.62583 3.05769 -0.0840238
lowerneck 2.98196 -7.72725 -7.33669
upperneck -2.05137 -10.5162 3.17978
head -0.572108 -5.24394 2.33506
rclavicle -2.37548e-014 7.15625e-015
rhumerus -0.0223539 28.225 -62.1471
rradius 107.506
rwrist -59.7591
rhand -28.9472 12.8249
rfingers 7.12502
rthumb -2.30068 -17.1424
lclavicle -2.37548e-014 7.15625e-015
lhumerus -49.3173 -42.3539 103.729
lradius 104.948
lwrist 37.5464
lhand -10.8651 27.7893
lfingers 7.12502
lthumb 15.1504 57.2147
rfemur -10.3492 2.78099 17.2799
rtibia 28.7236
rfoot -15.9079 -10.8132
rtoes -10.9114
lfemur -5.74535 1.05288 -20.3705
ltibia 25.593
lfoot -18.6744 11.7026
ltoes -13.1527
241
root -0.316756 17.8728 -2.15692 -1.8534 -2.9788 1.5548
lowerback 5.74717 4.71929 -4.37417
upperback 3.99641 6.08216 -2.00021
thorax 0.686043 2.98303 0.058242
lowerneck 3.15892 -7.80235 -7.57915
upperneck -2.66444 -10.6431 3.0471
head -0.78524 -5.29257 2.3627
rclavicle 1.82882e-014 8.74653e-015
rhumerus -0.440711 28.6746 -61.2812
rradius 109.506
rwrist -59.9025
rhand -28.3595 12.2035
rfingers 7.12502
rthumb -1.7331 -17.7692
lclavicle 1.82882e-014 8.74653e-015
lhumerus -49.4482 -42.0406 103.927
lradius 104.893
lwrist 37.4633
lhand -11.1397 27.7633
lfingers 7.12502
lthumb 14.8859 57.2084
rfemur -10.1552 2.72366 17.4274
rtibia 28.4931
rfoot -15.8419 -10.8106
rtoes -11.1677
lfemur -5.674 0.776679 -20.2589
ltibia 25.5803
lfoot -18.8453 11.8567
ltoes -12.5356
242
root -0.316745 17.8776 -2.14118 -1.85918 -2.92063 1.3201
lowerback 5.74971 4.59142 -4.36439
upperback 3.8866 5.90763 -1.91762
thorax 0.568436 2.89789 0.141943
lowerneck 3.26446 -7.88597 -7.71373
upperneck -3.0679 -10.7758 2.83705
head -0.929574 -5.34556 2.33714
rclavicle -4.03533e-014 2.8625e-014
rhumerus -0.683548 28.8666 -60.3486
rradius 111.421
rwrist -60.0716
rhand -27.9651 11.6671
rfingers 7.12502
rthumb -1.35222 -18.3084
lclavicle -4.03533e-014 2.8625e-014
lhumerus -49.7697 -41.702 104.226
lradius 104.86
lwrist 37.3316
lhand -11.3367 27.763
lfingers 7.12502
lthumb 14.6961 57.2221
rfemur -9.92081 2.66745 17.69
rtibia 28.2297
rfoot -15.8092 -10.8325
rtoes -11.267
lfemur -5.57921 0.5892 -20.0196
ltibia 25.5414
lfoot -18.8904 11.9249
ltoes -12.5946
243
root -0.317063 17.8829 -2.12374 -1.84388 -2.87215 1.1886
lowerback 6.20718 4.43952 -4.51638
upperback 3.41643 5.64755 -1.87434
thorax -0.180795 2.78134 0.223926
lowerneck 3.54225 -7.89291 -7.84934
upperneck -3.21935 -10.8209 2.60864
head -1.02938 -5.35899 2.3074
rclavicle 4.2043e-014 -1.74931e-014
rhumerus -1.11255 29.1124 -59.5843
rradius 113.266
rwrist -60.1151
rhand -27.7959 11.4361
rfingers 7.12502
rthumb -1.18876 -18.5403
lclavicle 4.2043e-014 -1.74931e-014
lhumerus -50.808 -41.0588 104.792
lradius 104.97
lwrist 37.0855
lhand -11.3335 27.8361
lfingers 7.12502
lthumb 14.6992 57.295
rfemur -9.69517 2.63008 17.8297
rtibia 27.95
rfoot -15.7938 -10.8007
rtoes -11.0711
lfemur -5.4853 0.517545 -19.8833
ltibia 25.4601
lfoot -18.8608 11.966
ltoes -13.0612
244
root -0.315386 17.8885 -2.10685 -1.77189 -2.83814 1.12563
lowerback 5.60219 4.26354 -4.48465
upperback 3.6062 5.46411 -1.94918
thorax 0.367071 2.68043 0.201519
lowerneck 3.60569 -7.96326 -7.92301
upperneck -3.8964 -10.9296 2.63061
head -1.24698 -5.39758 2.35529
rclavicle 4.94974e-014 -3.97569e-015
rhumerus -0.315747 28.5323 -58.2808
rradius 114.949
rwrist -60.0218
rhand -27.301 11.2655
rfingers 7.12502
rthumb -0.710774 -18.7131
lclavicle 4.94974e-014 -3.97569e-015
lhumerus -50.4483 -40.7698 104.363
lradius 104.977
lwrist 36.8539
lhand -11.1552 27.8834
lfingers 7.12502
lthumb 14.871 57.3297
rfemur -9.53696 2.57687 17.8838
rtibia 27.6602
rfoot -15.6841 -10.8361
rtoes -11.2067
lfemur -5.42478 0.421774 -19.8283
ltibia 25.3212
lfoot -18.9271 11.9419
ltoes -12.8117
245
root -0.313178 17.8947 -2.09112 -1.69056 -2.84059 1.05977
lowerback 5.32828 4.09237 -4.58838
upperback 3.5347 5.24736 -1.9621
thorax 0.444958 2.57003 0.276406
lowerneck 3.66483 -7.98378 -7.92728
upperneck -4.20729 -10.9708 2.49566
head -1.36281 -5.40736 2.32802
rclavicle 3.926e-014 -9.54166e-015
rhumerus 0.371707 27.8606 -56.892
rradius 116.638
rwrist -60.0057
rhand -26.8153 10.8396
rfingers 7.12502
rthumb -0.241682 -19.14
lclavicle 3.926e-014 -9.54166e-015
lhumerus -50.5827 -40.3186 104.264
lradius 104.968
lwrist 36.4535
lhand -10.9534 27.7191
lfingers 7.12502
lthumb 15.0654 57.1509
rfemur -9.40793 2.57126 17.9397
rtibia 27.3678
rfoot -15.5846 -10.8464
rtoes -11.1005
lfemur -5.32221 0.283361 -19.784
ltibia 25.1136
lfoot -18.9257 11.9454
ltoes -12.1759
246
root -0.311805 17.9021 -2.07469 -1.65283 -2.86652 1.0246
lowerback 5.22812 3.92318 -4.7585
upperback 3.37563 5.01481 -1.97502
thorax 0.332141 2.45493 0.370528
lowerneck 3.67277 -7.99159 -7.9319
upperneck -4.3674 -10.9896 2.35657
head -1.42258 -5.40905 2.29091
rclavicle 1.69961e-014 -1.51076e-014
rhumerus 1.26378 26.9571 -55.4456
rradius 118.179
rwrist -59.9653
rhand -26.7501 10.4878
rfingers 7.12502
rthumb -0.178762 -19.4919
lclavicle 1.69961e-014 -1.51076e-014
lhumerus -50.9734 -39.8755 104.294
lradius 105.064
lwrist 36.236
lhand -10.8811 27.4641
lfingers 7.12502
lthumb 15.135 56.8907
rfemur -9.22457 2.59359 17.9731
rtibia 27.0621
rfoot -15.5143 -10.8391
rtoes -11.1591
lfemur -5.15655 0.176237 -19.767
ltibia 24.8523
lfoot -18.8413 12.0175
ltoes -11.6042
247
root -0.309372 17.9103 -2.05687 -1.64088 -2.91996 0.956579
lowerback 5.10566 3.74994 -4.82742
upperback 3.24458 4.78419 -2.01375
thorax 0.271995 2.3416 0.385509
lowerneck 3.60599 -8.00578 -7.92724
upperneck -4.47561 -11.0078 2.2636
head -1.4504 -5.41289 2.26074
rclavicle 1.30204e-014 2.14687e-014
rhumerus 2.49052 25.7509 -53.951
rradius 119.565
rwrist -59.777
rhand -26.7726 10.2595
rfingers 7.12502
rthumb -0.200419 -19.7201
lclavicle 1.30204e-014 2.14687e-014
lhumerus -51.2018 -39.4786 104.214
lradius 105.169
lwrist 36.2522
lhand -10.8976 27.55
lfingers 7.12502
lthumb 15.1191 56.9778
rfemur -8.99319 2.63613 18.0432
rtibia 26.7269
rfoot -15.4153 -10.8439
rtoes -11.1867
lfemur -4.91973 0.0701903 -19.718
ltibia 24.5343
lfoot -18.8647 12.1934
ltoes -11.412
248
root -0.305235 17.921 -2.03844 -1.53288 -2.99362 0.921209
lowerback 4.83281 3.58135 -4.90441
upperback 3.09968 4.56958 -2.07004
thorax 0.28164 2.23534 0.395288
lowerneck 3.54152 -8.01735 -7.9723
upperneck -4.52483 -11.0216 2.23834
head -1.45339 -5.41692 2.2583
rclavicle 3.30976e-014 1.90833e-014
rhumerus 3.89491 24.271 -52.42
rradius 120.846
rwrist -59.4823
rhand -26.7572 10.0073
rfingers 7.12502
rthumb -0.185566 -19.9724
lclavicle 3.30976e-014 1.90833e-014
lhumerus -51.427 -39.1678 104.16
lradius 105.258
lwrist 36.5339
lhand -11.2085 27.5033
lfingers 7.12502
lthumb 14.8197 56.9534
rfemur -8.85126 2.69082 18.0658
rtibia 26.3541
rfoot -15.3689 -10.7682
rtoes -10.8555
lfemur -4.75821 -0.0295555 -19.7187
ltibia 24.1899
lfoot -18.8757 12.3926
ltoes -11.7017
249
root -0.300778 17.9321 -2.02074 -1.44921 -3.07042 0.922876
lowerback 4.58945 3.41776 -5.01342
upperback 2.92907 4.35729 -2.14459
thorax 0.247868 2.13114 0.399792
lowerneck 3.57188 -8.01436 -7.97804
upperneck -4.55404 -11.0228 2.18922
head -1.47061 -5.41526 2.24646
rclavicle -2.49475e-014 4.77083e-015
rhumerus 5.28242 22.5716 -50.9497
rradius 121.982
rwrist -59.2374
rhand -26.7321 10.2096
rfingers 7.12502
rthumb -0.161377 -19.7701
lclavicle -2.49475e-014 4.77083e-015
lhumerus -51.8334 -38.8759 104.228
lradius 105.386
lwrist 36.9746
lhand -11.7035 27.0918
lfingers 7.12502
lthumb 14.3427 56.5763
rfemur -8.67382 2.74329 18.0452
rtibia 25.9531
rfoot -15.2617 -10.7255
rtoes -10.918
lfemur -4.58874 -0.116865 -19.7613
ltibia 23.8634
lfoot -18.8379 12.5674
ltoes -11.9375
